<svg width="236" height="57" xmlns="http://www.w3.org/2000/svg" xmlns:xlink="http://www.w3.org/1999/xlink" xml:space="preserve" overflow="hidden"><defs><clipPath id="clip0"><rect x="503" y="255" width="236" height="57"/></clipPath></defs><g clip-path="url(#clip0)" transform="translate(-503 -255)"><path d="M233.185 74.051C233.185 31.1487 195.749-0.494267 155.931 0.00988533 140.441 0.197707 130.684 3.13365 117.023 9.43061L116.598 9.60855 116.163 9.43061C102.491 3.13365 92.7343 0.197707 77.2539 0.00988533 37.4555-0.494267 0 31.1487 0 74.051 0 75.5141 5.40728 86.467 8.84737 92.4674L8.84737 70.0376C8.966 32.5326 47.7956 8.27402 77.9656 8.27402 87.9795 8.27402 98.1614 11.121 107.543 15.0356 105.229 17.1214 101.364 20.5912 100.979 20.9767 100.732 21.2238 90.8067 16.4591 77.9656 16.4591 51.7596 16.4591 17.329 38.2464 17.329 70.4726L17.329 110.37C17.329 111.833 23.3294 121.52 26.1665 126.957L26.1665 70.0376C26.295 42.7046 56.5441 25.2274 77.6691 25.2274 84.6975 25.2274 86.2891 25.4152 94.6916 28.0645 92.9518 30.17 90.866 32.9478 89.225 35.1918 85.8146 34.0253 79.4583 33.4223 77.9557 33.4223 60.4785 33.4223 34.6481 47.8253 34.6481 71.0558L34.6481 144.296C34.6481 145.759 40.6485 155.447 43.4955 160.884L43.4955 70.6109C43.6141 52.6394 65.263 42.1906 77.9557 42.1906 79.4583 42.1906 82.6117 42.1511 84.8359 43.1693 78.1732 58.8869 78.4006 63.1969 77.9656 70.522L77.9656 229.073C80.6742 234.974 83.6596 240.827 86.8031 246.827L86.8031 69.3951C87.5841 61.3682 88.8395 53.0941 93.7229 46.125 96.2337 47.1728 100.208 50.5833 100.208 50.5833 100.208 50.5833 96.2931 56.3266 95.2847 70.5121L95.2847 262.98C97.9933 268.881 101.582 275.297 104.122 281.327L104.122 69.9882C104.765 66.0736 105.388 61.4275 107.236 58.5607 110.874 63.4836 111.635 69.2665 112.317 73.4876L112.268 297.351C113.059 299.308 116.192 305.655 116.588 306.791 116.983 305.664 120.097 299.318 120.898 297.351L120.858 73.4876C121.52 69.2665 122.291 63.4836 125.919 58.5607 127.778 61.4176 128.391 66.0736 129.033 69.9882L129.033 281.327C131.584 275.297 135.162 268.881 137.871 262.98L137.871 70.5121C136.862 56.3266 132.958 50.5833 132.958 50.5833 132.958 50.5833 136.922 47.1728 139.433 46.125 144.316 53.104 145.571 61.3682 146.352 69.3951L146.352 246.817C149.496 240.817 152.491 234.955 155.2 229.063L155.2 70.5121C154.755 63.1871 154.992 58.8869 148.31 43.1594 150.554 42.1511 153.707 42.1807 155.2 42.1807 167.893 42.1807 189.551 52.6295 189.68 70.6011L189.68 160.864C192.517 155.427 198.517 145.739 198.517 144.276L198.517 71.0459C198.517 47.8154 172.687 33.4124 155.21 33.4124 153.727 33.4124 147.351 34.0154 143.95 35.1819 142.309 32.9379 140.223 30.1602 138.474 28.0546 146.886 25.4152 148.488 25.2175 155.496 25.2175 176.641 25.2175 206.88 42.6948 206.999 70.0277L206.999 126.957C209.846 121.52 215.846 111.833 215.846 110.37L215.846 70.4726C215.846 38.2365 181.416 16.4591 155.2 16.4591 142.349 16.4591 132.444 21.2139 132.187 20.9767 131.801 20.5912 127.926 17.1313 125.623 15.0356 135.004 11.121 145.206 8.27402 155.2 8.27402 185.37 8.27402 224.209 32.5326 224.318 70.0376L224.318 92.4575C227.778 86.4571 233.185 75.5141 233.185 74.051ZM116.163 21.036 116.598 20.8284 117.023 21.036C118.436 21.6291 122.262 24.7529 123.883 26.3741 119.781 28.8751 117.438 31.0301 117.023 31.4156L116.598 31.7912 116.163 31.4156C115.757 31.0301 113.405 28.8751 109.302 26.3741 110.923 24.7529 114.749 21.6192 116.163 21.036ZM104.607 44.1677C102.096 42.4971 101.068 41.6271 97.9241 39.6797 99.1301 37.1194 102.916 32.8984 102.916 32.8984 102.916 32.8984 107.463 35.2215 109.915 37.5544 108.561 38.9087 107.197 40.006 104.607 44.1677ZM117.023 58.2444 116.598 59.1934 116.163 58.2444C115.164 55.7039 111.141 49.9605 111.141 49.9605 111.141 49.9605 111.922 47.7659 116.163 43.2582L116.598 42.8628 117.023 43.2582C121.263 47.7758 122.064 49.9605 122.064 49.9605 122.064 49.9605 118.021 55.7039 117.023 58.2444ZM130.269 32.8885C130.269 32.8885 134.055 37.1095 135.271 39.6698 132.117 41.6173 131.099 42.4872 128.579 44.1578 125.998 40.006 124.644 38.8988 123.27 37.5445 125.732 35.2116 130.269 32.8885 130.269 32.8885Z" fill="#FFFFFF" fill-opacity="0.16" transform="matrix(1.01049 0 0 1 503.184 255)"/></g></svg>